<?xml version="1.0" encoding="utf-8"?>
<!-- Generator: Adobe Illustrator 24.1.2, SVG Export Plug-In . SVG Version: 6.00 Build 0)  -->
<svg version="1.1" id="Layer_1" xmlns="http://www.w3.org/2000/svg" xmlns:xlink="http://www.w3.org/1999/xlink" x="0px" y="0px"
	 viewBox="0 0 121.91 105.63" style="enable-background:new 0 0 121.91 105.63;" xml:space="preserve">
<style type="text/css">
	.st0{fill:#00708A;}
	.st1{fill:#66AFC1;}
	.st2{fill:#8B8A8B;}
</style>
<g>
	<path class="st0" d="M94.57,15.72c-0.81-0.68-1.65-1.34-2.5-1.97l4.77-8.26c-2.69-1.92-5.55-3.62-8.55-5.07l-4.77,8.26
		c-6.57-3.06-13.79-4.69-21.14-4.69c-3.59,0-7.13,0.38-10.56,1.11l5.3,9.17c1.72-0.23,3.48-0.35,5.27-0.35
		c16.7,0,31.34,10.28,37.27,25.31h10.52C107.35,30.13,101.94,21.92,94.57,15.72z"/>
	<path class="st0" d="M110.18,68.78H99.63c-5.89,14.8-20.37,25.29-37.25,25.29c-22.1,0-40.07-17.98-40.07-40.07
		c0-9.46,3.3-18.17,8.8-25.03l-5.27-9.12c-7.51,8.02-12.09,18.1-13.21,28.93h-9.6c-0.12,1.54-0.18,3.1-0.18,4.68
		c0,1.91,0.09,3.8,0.27,5.67h9.5c1.15,11.42,6.16,22.01,14.39,30.24c9.45,9.45,22.01,14.65,35.36,14.65c7.17,0,14.11-1.5,20.46-4.35
		l4.76,8.25c3.02-1.42,5.9-3.08,8.61-4.96l-4.76-8.24c2.22-1.59,4.32-3.37,6.29-5.34C103.6,83.51,107.82,76.46,110.18,68.78z"/>
	<path class="st1" d="M121.91,53.94c0-1.5-0.06-3-0.17-4.47H93.55c-2.18-15.3-15.36-27.1-31.25-27.1c-3.83,0-7.51,0.69-10.91,1.95
		L44.67,12.7l0,0L37.34,0c-3.02,1.41-5.91,3.06-8.63,4.93l7.48,12.96l0,0l6.53,11.3c-0.01,0.01-0.02,0.02-0.04,0.03l5.05,8.74
		c3.85-3.51,8.96-5.65,14.56-5.65c11.93,0,21.63,9.7,21.63,21.63s-9.7,21.63-21.63,21.63c-10.13,0-18.65-6.99-20.99-16.4H56.7V48.82
		H31.15c-0.03,0.27-0.05,0.54-0.08,0.8h-0.05c-0.19,1.41-0.3,2.85-0.3,4.32c0,17.41,14.16,31.57,31.57,31.57
		c15.89,0,29.07-11.8,31.25-27.1h28.19C121.85,56.94,121.91,55.45,121.91,53.94z"/>
	<circle class="st2" cx="62.29" cy="53.94" r="12.92"/>
</g>
</svg>
