<?xml version="1.0" encoding="UTF-8" standalone="no"?>
<!-- Created with Inkscape (http://www.inkscape.org/) -->

<svg
   width="360.07791mm"
   height="57.198059mm"
   viewBox="0 0 360.07792 57.198059"
   version="1.1"
   id="svg4395"
   inkscape:version="1.1.2 (0a00cf5339, 2022-02-04)"
   sodipodi:docname="Logo_IconText_Grey.svg"
   xmlns:inkscape="http://www.inkscape.org/namespaces/inkscape"
   xmlns:sodipodi="http://sodipodi.sourceforge.net/DTD/sodipodi-0.dtd"
   xmlns="http://www.w3.org/2000/svg"
   xmlns:svg="http://www.w3.org/2000/svg">
  <sodipodi:namedview
     id="namedview4397"
     pagecolor="#ffffff"
     bordercolor="#666666"
     borderopacity="1.0"
     inkscape:pageshadow="2"
     inkscape:pageopacity="0.0"
     inkscape:pagecheckerboard="0"
     inkscape:document-units="mm"
     showgrid="false"
     fit-margin-top="0"
     fit-margin-left="0"
     fit-margin-right="0"
     fit-margin-bottom="0"
     inkscape:zoom="0.56630543"
     inkscape:cx="888.21327"
     inkscape:cy="302.84011"
     inkscape:window-width="1912"
     inkscape:window-height="1082"
     inkscape:window-x="1526"
     inkscape:window-y="171"
     inkscape:window-maximized="0"
     inkscape:current-layer="layer1" />
  <defs
     id="defs4392">
    <rect
       x="1053.6741"
       y="-38.078075"
       width="764.82074"
       height="365.90103"
       id="rect45899" />
    <rect
       x="188.95467"
       y="-457.18842"
       width="808.63757"
       height="373.47302"
       id="rect42307" />
    <rect
       x="327.54352"
       y="-225.62505"
       width="868.00574"
       height="176.71571"
       id="rect8889" />
  </defs>
  <g
     inkscape:label="Layer 1"
     inkscape:groupmode="layer"
     id="layer1"
     transform="translate(-46.625164,-140.87928)">
    <rect
       style="fill:#404756;fill-opacity:1;stroke-width:0.156938"
       id="rect3053"
       width="27.565067"
       height="5"
       x="60.752533"
       y="166.77367" />
    <path
       id="path1826-8-1"
       style="fill:#0072c6;fill-opacity:1;stroke-width:0.357116"
       d="m 73.71783,141.82909 a 27.5,27.5 0 0 0 -26.224756,27.44484 27.5,27.5 0 0 0 26.224756,27.44432 v -5.00331 A 22.499999,22.499999 0 0 1 52.493286,169.27393 22.499999,22.499999 0 0 1 73.71783,146.8324 Z" />
    <path
       id="path1826"
       style="fill:#a4abbd;fill-opacity:1;stroke-width:0.227255"
       d="m 73.71783,151.84089 a 17.499999,17.499999 0 0 0 -16.224332,17.43304 17.499999,17.499999 0 0 0 16.224332,17.43253 v -5.00952 A 12.499999,12.499999 0 0 1 62.493192,169.27393 12.499999,12.499999 0 0 1 73.71783,156.85092 Z" />
    <path
       id="path1828-7"
       style="fill:#404756;fill-opacity:1;stroke-width:0.2408"
       d="m 97.390444,156.77365 a 12.5,12.5 0 0 0 -12.500008,12.50001 12.5,12.5 0 0 0 12.500008,12.50002 12.5,12.5 0 0 0 12.500016,-12.50002 12.5,12.5 0 0 0 -12.500016,-12.50001 z m 0,4.9997 a 7.5,7.5 0 0 1 7.500316,7.50031 7.5,7.5 0 0 1 -7.500316,7.49981 7.5,7.5 0 0 1 -7.499796,-7.49981 7.5,7.5 0 0 1 7.499796,-7.50031 z" />
    <rect
       style="fill:#0072c6;fill-opacity:1;stroke-width:0.264583"
       id="rect3327"
       width="10"
       height="5"
       x="123.45405"
       y="-157.95885"
       transform="rotate(123.11808)" />
    <path
       id="rect3327-4"
       style="fill:#0072c6;fill-opacity:1;stroke-width:0.264583"
       d="m 48.421952,156.4007 -1.796788,4.66586 4.914426,1.8924 1.829348,-4.65347 z" />
    <path
       id="rect3327-4-1"
       style="fill:#0072c6;fill-opacity:1;stroke-width:0.264583"
       d="m 62.20587,140.87928 -4.382677,2.40657 2.674254,4.86896 4.770253,-1.70067 z" />
    <text
       xml:space="preserve"
       style="font-style:normal;font-weight:normal;font-size:10.5833px;line-height:1.25;font-family:sans-serif;fill:#000000;fill-opacity:1;stroke:none;stroke-width:0.264583"
       x="166.20264"
       y="172.46909"
       id="text2909"><tspan
         sodipodi:role="line"
         id="tspan2907"
         style="stroke-width:0.264583"
         x="166.20264"
         y="172.46909"></tspan></text>
    <text
       xml:space="preserve"
       transform="matrix(0.26458333,0,0,0.26458333,46.625164,140.87928)"
       id="text8887"
       style="font-style:normal;font-weight:normal;font-size:40px;line-height:1.25;font-family:sans-serif;white-space:pre;shape-inside:url(#rect8889);fill:#000000;fill-opacity:1;stroke:none" />
    <text
       xml:space="preserve"
       transform="matrix(0.26458333,0,0,0.26458333,46.625164,140.87928)"
       id="text42305"
       style="font-style:normal;font-weight:normal;font-size:40px;line-height:1.25;font-family:sans-serif;white-space:pre;shape-inside:url(#rect42307);fill:#000000;fill-opacity:1;stroke:none" />
    <text
       xml:space="preserve"
       transform="matrix(0.26458333,0,0,0.26458333,46.625164,140.87928)"
       id="text45897"
       style="font-style:normal;font-weight:normal;font-size:40px;line-height:1.25;font-family:sans-serif;white-space:pre;shape-inside:url(#rect45899);fill:#000000;fill-opacity:1;stroke:none" />
    <text
       xml:space="preserve"
       style="font-style:normal;font-weight:normal;font-size:35.2778px;line-height:1;font-family:sans-serif;letter-spacing:-0.79375px;fill:#a4abbd;fill-opacity:1;stroke:none;stroke-width:0.264583"
       x="124.95731"
       y="179.53949"
       id="text53271"><tspan
         sodipodi:role="line"
         id="tspan53269"
         style="font-style:normal;font-variant:normal;font-weight:800;font-stretch:normal;font-size:35.2778px;font-family:Cantarell;-inkscape-font-specification:'Cantarell Ultra-Bold';fill:#a4abbd;fill-opacity:1;stroke-width:0.264583"
         x="124.95731"
         y="179.53949"
         dx="0"
         dy="0">Cyber Connectors</tspan></text>
  </g>
</svg>
