<?xml version="1.0" encoding="UTF-8" standalone="no"?>
<!-- Generator: Adobe Illustrator 24.1.2, SVG Export Plug-In . SVG Version: 6.00 Build 0)  -->

<svg
   version="1.1"
   id="Layer_1"
   x="0px"
   y="0px"
   viewBox="0 0 570.04 100"
   xml:space="preserve"
   sodipodi:docname="logo.svg"
   inkscape:version="1.1.2 (b8e25be833, 2022-02-05)"
   width="570.03998"
   height="100"
   xmlns:inkscape="http://www.inkscape.org/namespaces/inkscape"
   xmlns:sodipodi="http://sodipodi.sourceforge.net/DTD/sodipodi-0.dtd"
   xmlns="http://www.w3.org/2000/svg"
   xmlns:svg="http://www.w3.org/2000/svg"><defs
   id="defs57" /><sodipodi:namedview
   id="namedview55"
   pagecolor="#ffffff"
   bordercolor="#666666"
   borderopacity="1.0"
   inkscape:pageshadow="2"
   inkscape:pageopacity="0.0"
   inkscape:pagecheckerboard="0"
   showgrid="false"
   inkscape:zoom="2.9576873"
   inkscape:cx="284.85094"
   inkscape:cy="52.743913"
   inkscape:window-width="3840"
   inkscape:window-height="2050"
   inkscape:window-x="-12"
   inkscape:window-y="-12"
   inkscape:window-maximized="1"
   inkscape:current-layer="Layer_1" />
<style
   type="text/css"
   id="style2">
	.st0{fill:#00708A;}
	.st1{fill:#66AFC1;}
	.st2{fill:#8B8A8B;}
</style>
<g
   id="g42"
   transform="matrix(0.81960201,0,0,0.81960201,102.47688,7.425255)">
	<path
   d="m 8.71,11.56 c 0,-0.41 0.27,-0.68 0.68,-0.68 h 29.65 c 0.41,0 0.68,0.27 0.68,0.68 v 7.27 c 0,0.41 -0.27,0.68 -0.68,0.68 H 19.11 c -0.27,0 -0.41,0.14 -0.41,0.41 v 9.18 c 0,0.27 0.14,0.41 0.41,0.41 H 35.7 c 0.41,0 0.68,0.27 0.68,0.68 v 7.21 c 0,0.41 -0.27,0.68 -0.68,0.68 H 19.11 c -0.27,0 -0.41,0.14 -0.41,0.41 v 9.59 c 0,0.27 0.14,0.41 0.41,0.41 h 19.92 c 0.41,0 0.68,0.27 0.68,0.68 v 7.27 c 0,0.41 -0.27,0.68 -0.68,0.68 H 9.39 c -0.41,0 -0.68,-0.27 -0.68,-0.68 z"
   id="path4" />
	<path
   d="m 57.32,57.12 c -0.41,0 -0.68,-0.27 -0.68,-0.68 V 20.2 c 0,-0.27 -0.14,-0.41 -0.41,-0.41 H 44.54 c -0.41,0 -0.68,-0.27 -0.68,-0.68 v -7.55 c 0,-0.41 0.27,-0.68 0.68,-0.68 h 34.2 c 0.41,0 0.68,0.27 0.68,0.68 v 7.55 c 0,0.41 -0.27,0.68 -0.68,0.68 H 67.05 c -0.27,0 -0.41,0.14 -0.41,0.41 v 36.24 c 0,0.41 -0.27,0.68 -0.68,0.68 z"
   id="path6" />
	<path
   d="m 85,11.56 c 0,-0.41 0.27,-0.68 0.68,-0.68 h 8.64 c 0.41,0 0.68,0.27 0.68,0.68 V 28.9 c 0,0.27 0.14,0.41 0.41,0.41 h 15.09 c 0.27,0 0.41,-0.14 0.41,-0.41 V 11.56 c 0,-0.41 0.27,-0.68 0.68,-0.68 h 8.64 c 0.41,0 0.68,0.27 0.68,0.68 v 44.88 c 0,0.41 -0.27,0.68 -0.68,0.68 h -8.64 c -0.41,0 -0.68,-0.27 -0.68,-0.68 V 38.63 c 0,-0.27 -0.14,-0.41 -0.41,-0.41 H 95.4 c -0.27,0 -0.41,0.14 -0.41,0.41 v 17.81 c 0,0.41 -0.27,0.68 -0.68,0.68 h -8.64 c -0.41,0 -0.68,-0.27 -0.68,-0.68 V 11.56 Z"
   id="path8" />
	<path
   d="m 144.57,34 c 0,-7.14 0.27,-9.52 1.29,-12.51 2.45,-7.55 8.36,-11.35 16.46,-11.35 7.82,0 13.53,3.81 16.11,10.27 0.2,0.34 0.07,0.68 -0.34,0.82 l -7.41,3.33 c -0.41,0.2 -0.75,0.07 -0.95,-0.34 -1.29,-2.99 -3.47,-5.24 -7.34,-5.24 -3.6,0 -5.92,1.9 -6.94,5.1 -0.54,1.7 -0.75,3.33 -0.75,9.93 0,6.6 0.2,8.23 0.75,9.93 1.02,3.2 3.33,5.1 6.94,5.1 3.88,0 6.05,-2.24 7.34,-5.24 0.2,-0.41 0.54,-0.54 0.95,-0.34 l 7.41,3.33 c 0.41,0.14 0.54,0.48 0.34,0.82 -2.58,6.46 -8.3,10.27 -16.11,10.27 -8.09,0 -14.01,-3.81 -16.46,-11.35 -1.02,-3.01 -1.29,-5.39 -1.29,-12.53 z"
   id="path10" />
	<path
   d="m 195.43,57.12 c -0.41,0 -0.68,-0.27 -0.68,-0.68 V 38.69 L 181.08,11.56 c -0.14,-0.34 0,-0.68 0.48,-0.68 h 8.84 c 0.48,0 0.82,0.2 1.02,0.68 l 8.36,16.86 h 0.2 l 8.36,-16.86 c 0.2,-0.48 0.54,-0.68 1.02,-0.68 h 8.57 c 0.48,0 0.68,0.34 0.48,0.68 l -13.67,27.13 v 17.75 c 0,0.41 -0.27,0.68 -0.68,0.68 z"
   id="path12" />
	<path
   d="m 223.52,11.56 c 0,-0.41 0.27,-0.68 0.68,-0.68 h 18.02 c 10.06,0 14.75,4.96 14.75,12.31 0,5.03 -2.31,8.16 -5.37,9.86 v 0.14 c 3.06,1.16 6.19,4.96 6.19,10.47 0,9.11 -6.05,13.46 -16.05,13.46 H 224.2 c -0.41,0 -0.68,-0.27 -0.68,-0.68 z m 17.47,18.23 c 3.81,0 6.05,-2.04 6.05,-5.44 0,-3.4 -2.24,-5.37 -6.05,-5.37 h -7.07 c -0.27,0 -0.41,0.14 -0.41,0.41 v 10 c 0,0.27 0.14,0.41 0.41,0.41 h 7.07 z m -7.07,19.24 h 7.62 c 4.08,0 6.26,-2.18 6.26,-5.78 0,-3.54 -2.18,-5.78 -6.26,-5.78 h -7.62 c -0.27,0 -0.41,0.14 -0.41,0.41 v 10.74 c 0,0.27 0.14,0.41 0.41,0.41 z"
   id="path14" />
	<path
   d="m 264.99,11.56 c 0,-0.41 0.27,-0.68 0.68,-0.68 h 29.64 c 0.41,0 0.68,0.27 0.68,0.68 v 7.27 c 0,0.41 -0.27,0.68 -0.68,0.68 H 275.4 c -0.27,0 -0.41,0.14 -0.41,0.41 v 9.18 c 0,0.27 0.14,0.41 0.41,0.41 h 16.59 c 0.41,0 0.68,0.27 0.68,0.68 v 7.21 c 0,0.41 -0.27,0.68 -0.68,0.68 H 275.4 c -0.27,0 -0.41,0.14 -0.41,0.41 v 9.59 c 0,0.27 0.14,0.41 0.41,0.41 h 19.92 c 0.41,0 0.68,0.27 0.68,0.68 v 7.27 c 0,0.41 -0.27,0.68 -0.68,0.68 h -29.64 c -0.41,0 -0.68,-0.27 -0.68,-0.68 V 11.56 Z"
   id="path16" />
	<path
   d="m 328.98,57.12 c -0.61,0 -0.82,-0.2 -1.02,-0.68 L 320,39.51 h -6.19 c -0.27,0 -0.41,0.14 -0.41,0.41 v 16.52 c 0,0.41 -0.27,0.68 -0.68,0.68 h -8.63 c -0.41,0 -0.68,-0.27 -0.68,-0.68 V 11.56 c 0,-0.41 0.27,-0.68 0.68,-0.68 h 18.43 c 9.45,0 15.71,5.92 15.71,14.35 0,5.92 -3.13,10.61 -8.23,12.85 l 9.11,18.22 c 0.2,0.41 0,0.82 -0.48,0.82 z m -0.75,-31.89 c 0,-3.47 -2.45,-5.71 -6.26,-5.71 h -8.16 c -0.27,0 -0.41,0.14 -0.41,0.41 V 30.6 c 0,0.27 0.14,0.41 0.41,0.41 h 8.16 c 3.81,0 6.26,-2.24 6.26,-5.78 z"
   id="path18" />
	<path
   d="m 360.67,34 c 0,-6.87 0.27,-9.45 1.29,-12.65 2.38,-7.48 8.77,-11.22 17,-11.22 8.63,0 14.28,4.28 16.45,9.86 0.2,0.41 0.14,0.82 -0.27,1.02 l -7.28,3.06 c -0.48,0.14 -0.82,0 -0.95,-0.34 -1.84,-3.13 -4.15,-4.76 -7.96,-4.76 -3.94,0 -6.39,1.97 -7.41,5.17 -0.54,1.63 -0.75,3.81 -0.75,9.86 0,6.05 0.2,8.29 0.75,9.93 1.02,3.2 3.54,5.1 7.55,5.1 3.47,0 6.46,-1.7 7.41,-4.76 0.34,-1.16 0.54,-2.58 0.54,-4.56 0,-0.27 -0.14,-0.41 -0.41,-0.41 h -6.25 c -0.41,0 -0.68,-0.27 -0.68,-0.68 V 32.1 c 0,-0.41 0.27,-0.68 0.68,-0.68 h 15.91 c 0.41,0 0.68,0.27 0.68,0.68 v 3.81 c 0,4.08 -0.34,7.89 -1.16,10.4 -2.31,7.41 -8.7,11.56 -16.86,11.56 -8.23,0 -14.62,-3.74 -17,-11.22 -1.01,-3.2 -1.28,-5.78 -1.28,-12.65 z"
   id="path20" />
	<path
   d="m 430.16,57.12 c -0.61,0 -0.82,-0.2 -1.02,-0.68 L 421.18,39.51 H 415 c -0.27,0 -0.41,0.14 -0.41,0.41 v 16.52 c 0,0.41 -0.27,0.68 -0.68,0.68 h -8.63 c -0.41,0 -0.68,-0.27 -0.68,-0.68 V 11.56 c 0,-0.41 0.27,-0.68 0.68,-0.68 h 18.43 c 9.45,0 15.71,5.92 15.71,14.35 0,5.92 -3.13,10.61 -8.23,12.85 l 9.11,18.22 c 0.2,0.41 0,0.82 -0.48,0.82 z m -0.75,-31.89 c 0,-3.47 -2.45,-5.71 -6.26,-5.71 H 415 c -0.27,0 -0.41,0.14 -0.41,0.41 V 30.6 c 0,0.27 0.14,0.41 0.41,0.41 h 8.16 c 3.8,0 6.25,-2.24 6.25,-5.78 z"
   id="path22" />
	<path
   d="m 446.82,46.65 c -1.02,-3.2 -1.29,-5.78 -1.29,-12.65 0,-6.87 0.27,-9.45 1.29,-12.65 2.38,-7.48 8.77,-11.22 16.86,-11.22 8.09,0 14.48,3.74 16.86,11.22 1.02,3.2 1.29,5.78 1.29,12.65 0,6.87 -0.27,9.45 -1.29,12.65 -2.38,7.48 -8.77,11.22 -16.86,11.22 -8.09,0 -14.48,-3.74 -16.86,-11.22 z m 24.14,-2.72 c 0.54,-1.63 0.75,-3.88 0.75,-9.93 0,-6.05 -0.2,-8.29 -0.75,-9.93 -1.02,-3.2 -3.47,-5.1 -7.28,-5.1 -3.81,0 -6.25,1.9 -7.28,5.1 -0.54,1.63 -0.75,3.88 -0.75,9.93 0,6.05 0.2,8.29 0.75,9.93 1.02,3.2 3.47,5.1 7.28,5.1 3.81,0 6.26,-1.91 7.28,-5.1 z"
   id="path24" />
	<path
   d="M 489.25,40.12 V 11.56 c 0,-0.41 0.27,-0.68 0.68,-0.68 h 8.63 c 0.41,0 0.68,0.27 0.68,0.68 v 28.83 c 0,5.51 3.06,8.63 7.75,8.63 4.62,0 7.68,-3.13 7.68,-8.63 V 11.56 c 0,-0.41 0.27,-0.68 0.68,-0.68 H 524 c 0.41,0 0.68,0.27 0.68,0.68 v 28.56 c 0,11.49 -7.34,17.75 -17.68,17.75 -10.4,0 -17.75,-6.26 -17.75,-17.75 z"
   id="path26" />
	<path
   d="m 534,57.12 c -0.41,0 -0.68,-0.27 -0.68,-0.68 V 11.56 c 0,-0.41 0.27,-0.68 0.68,-0.68 h 17.95 c 10.06,0 16.11,6.05 16.11,14.89 0,8.7 -6.12,14.82 -16.11,14.82 h -8.23 c -0.27,0 -0.41,0.14 -0.41,0.41 v 15.43 c 0,0.41 -0.27,0.68 -0.68,0.68 H 534 Z m 24.07,-31.35 c 0,-3.74 -2.52,-6.26 -6.73,-6.26 h -7.62 c -0.27,0 -0.41,0.14 -0.41,0.41 v 11.63 c 0,0.27 0.14,0.41 0.41,0.41 h 7.62 c 4.21,0 6.73,-2.45 6.73,-6.19 z"
   id="path28" />
	<path
   d="m 453.12,76.42 c 0.07,-0.22 0.22,-0.36 0.47,-0.36 h 3.35 c 0.25,0 0.4,0.15 0.47,0.36 l 8.37,24.03 c 0.07,0.22 0,0.36 -0.25,0.36 h -3.57 c -0.25,0 -0.4,-0.11 -0.47,-0.36 l -1.64,-4.81 h -9.32 l -1.64,4.81 c -0.07,0.25 -0.22,0.36 -0.47,0.36 h -3.53 c -0.25,0 -0.33,-0.15 -0.25,-0.36 z m 5.42,15.4 -3.28,-9.61 h -0.11 l -3.31,9.61 z"
   id="path30" />
	<path
   d="m 469.18,76.42 c 0,-0.22 0.15,-0.36 0.36,-0.36 h 3.57 c 0.22,0 0.36,0.15 0.36,0.36 v 20.32 c 0,0.15 0.07,0.22 0.22,0.22 h 11.36 c 0.22,0 0.36,0.15 0.36,0.36 v 3.13 c 0,0.22 -0.15,0.36 -0.36,0.36 h -15.51 c -0.22,0 -0.36,-0.15 -0.36,-0.36 z"
   id="path32" />
	<path
   d="M 501.95,92.04 V 76.42 c 0,-0.22 0.15,-0.36 0.36,-0.36 h 3.57 c 0.22,0 0.36,0.15 0.36,0.36 v 15.69 c 0,5.75 -3.9,9.1 -9.14,9.1 -5.21,0 -9.1,-3.35 -9.1,-9.1 V 76.42 c 0,-0.22 0.15,-0.36 0.36,-0.36 h 3.57 c 0.22,0 0.36,0.15 0.36,0.36 v 15.62 c 0,3.42 2,5.32 4.81,5.32 2.84,-0.01 4.85,-1.9 4.85,-5.32 z"
   id="path34" />
	<path
   d="m 511.56,76.42 c 0,-0.22 0.15,-0.36 0.36,-0.36 h 3.24 c 0.33,0 0.51,0.11 0.62,0.36 l 6.81,15.25 h 0.15 l 6.7,-15.25 c 0.11,-0.25 0.29,-0.36 0.62,-0.36 h 3.2 c 0.22,0 0.36,0.15 0.36,0.36 v 24.03 c 0,0.22 -0.15,0.36 -0.36,0.36 h -3.17 c -0.22,0 -0.36,-0.15 -0.36,-0.36 V 85.3 h -0.15 l -5.24,11.65 c -0.15,0.33 -0.36,0.47 -0.69,0.47 h -2.11 c -0.33,0 -0.55,-0.15 -0.69,-0.47 L 515.6,85.3 h -0.15 v 15.15 c 0,0.22 -0.15,0.36 -0.36,0.36 h -3.17 c -0.22,0 -0.36,-0.15 -0.36,-0.36 z"
   id="path36" />
	<path
   d="m 539.09,76.42 c 0,-0.22 0.15,-0.36 0.36,-0.36 h 3.35 c 0.29,0 0.47,0.11 0.62,0.36 L 553.5,93.5 h 0.15 V 76.42 c 0,-0.22 0.15,-0.36 0.36,-0.36 h 3.17 c 0.22,0 0.36,0.15 0.36,0.36 v 24.03 c 0,0.22 -0.15,0.36 -0.36,0.36 h -3.31 c -0.29,0 -0.47,-0.11 -0.62,-0.36 L 543.13,83.41 h -0.15 v 17.04 c 0,0.22 -0.15,0.36 -0.36,0.36 h -3.17 c -0.22,0 -0.36,-0.15 -0.36,-0.36 z"
   id="path38" />
	<path
   d="m 563.01,76.42 c 0,-0.22 0.15,-0.36 0.36,-0.36 h 3.57 c 0.22,0 0.36,0.15 0.36,0.36 v 24.03 c 0,0.22 -0.15,0.36 -0.36,0.36 h -3.57 c -0.22,0 -0.36,-0.15 -0.36,-0.36 z"
   id="path40" />
</g>
<g
   id="g52"
   transform="matrix(0.81960201,0,0,0.81960201,102.47688,7.425255)">
	<path
   class="st0"
   d="m -31.8,15.48 c -0.81,-0.68 -1.65,-1.34 -2.5,-1.97 l 4.77,-8.26 c -2.69,-1.92 -5.55,-3.62 -8.55,-5.07 l -4.77,8.26 c -6.57,-3.06 -13.79,-4.69 -21.14,-4.69 -3.59,0 -7.13,0.38 -10.56,1.11 l 5.3,9.17 c 1.72,-0.23 3.48,-0.35 5.27,-0.35 16.7,0 31.34,10.28 37.27,25.31 h 10.52 c -2.83,-9.1 -8.24,-17.31 -15.61,-23.51 z"
   id="path44" />
	<path
   class="st0"
   d="m -16.19,68.54 h -10.55 c -5.89,14.8 -20.37,25.29 -37.25,25.29 -22.1,0 -40.07,-17.98 -40.07,-40.07 0,-9.46 3.3,-18.17 8.8,-25.03 l -5.27,-9.12 c -7.51,8.02 -12.09,18.1 -13.21,28.93 h -9.6 c -0.12,1.54 -0.18,3.1 -0.18,4.68 0,1.91 0.09,3.8 0.27,5.67 h 9.5 c 1.15,11.42 6.16,22.01 14.39,30.24 9.45,9.45 22.01,14.65 35.36,14.65 7.17,0 14.11,-1.5 20.46,-4.35 l 4.76,8.25 c 3.02,-1.42 5.9,-3.08 8.61,-4.96 l -4.76,-8.24 c 2.22,-1.59 4.32,-3.37 6.29,-5.34 5.86,-5.87 10.08,-12.91 12.45,-20.6 z"
   id="path46" />
	<path
   class="st1"
   d="m -4.47,53.71 c 0,-1.5 -0.06,-3 -0.17,-4.47 h -28.19 c -2.18,-15.3 -15.36,-27.1 -31.25,-27.1 -3.83,0 -7.51,0.69 -10.91,1.95 L -81.7,12.47 v 0 l -7.33,-12.7 c -3.02,1.41 -5.91,3.06 -8.63,4.93 l 7.48,12.96 v 0 l 6.53,11.3 c -0.01,0.01 -0.02,0.02 -0.04,0.03 l 5.05,8.74 c 3.85,-3.51 8.96,-5.65 14.56,-5.65 11.93,0 21.63,9.7 21.63,21.63 0,11.93 -9.7,21.63 -21.63,21.63 -10.13,0 -18.65,-6.99 -20.99,-16.4 h 15.39 V 48.58 h -25.55 c -0.03,0.27 -0.05,0.54 -0.08,0.8 h -0.05 c -0.19,1.41 -0.3,2.85 -0.3,4.32 0,17.41 14.16,31.57 31.57,31.57 15.89,0 29.07,-11.8 31.25,-27.1 h 28.19 c 0.13,-1.47 0.18,-2.96 0.18,-4.46 z"
   id="path48" />
	<circle
   class="st2"
   cx="-64.080002"
   cy="53.709999"
   r="12.92"
   id="circle50" />
</g>
</svg>
