<?xml version="1.0" encoding="UTF-8" standalone="no"?>
<!-- Created with Inkscape (http://www.inkscape.org/) -->

<svg
   width="321.35098mm"
   height="55.000198mm"
   viewBox="0 0 321.35098 55.000198"
   version="1.1"
   id="svg1066"
   inkscape:version="1.3.2 (091e20e, 2023-11-25)"
   sodipodi:docname="Logo_Text_Dark.svg"
   xmlns:inkscape="http://www.inkscape.org/namespaces/inkscape"
   xmlns:sodipodi="http://sodipodi.sourceforge.net/DTD/sodipodi-0.dtd"
   xmlns="http://www.w3.org/2000/svg"
   xmlns:svg="http://www.w3.org/2000/svg">
  <sodipodi:namedview
     id="namedview1068"
     pagecolor="#ffffff"
     bordercolor="#666666"
     borderopacity="1.0"
     inkscape:pageshadow="2"
     inkscape:pageopacity="0.0"
     inkscape:pagecheckerboard="0"
     inkscape:document-units="mm"
     showgrid="false"
     fit-margin-top="0"
     fit-margin-left="0"
     fit-margin-right="0"
     fit-margin-bottom="0"
     inkscape:zoom="0.80087682"
     inkscape:cx="486.34196"
     inkscape:cy="280.31776"
     inkscape:window-width="1920"
     inkscape:window-height="1212"
     inkscape:window-x="1231"
     inkscape:window-y="78"
     inkscape:window-maximized="0"
     inkscape:current-layer="layer1"
     inkscape:showpageshadow="2"
     inkscape:deskcolor="#d1d1d1" />
  <defs
     id="defs1063" />
  <g
     inkscape:label="Layer 1"
     inkscape:groupmode="layer"
     id="layer1"
     transform="translate(-41.149437,-74.25296)">
    <path
       id="path19813-1-0"
       style="fill:#a4abbd;fill-opacity:1;stroke-width:0.246856"
       d="m 80.379108,94.25306 a 7.5,7.5 0 0 0 -7.4998,7.5003 7.5,7.5 0 0 0 7.4998,7.4998 7.5,7.5 0 0 0 7.50032,-7.4998 7.5,7.5 0 0 0 -7.50032,-7.5003 z m 0,5.0002 a 2.5,2.5 0 0 1 2.50011,2.5001 2.5,2.5 0 0 1 -2.50011,2.4996 2.5,2.5 0 0 1 -2.49959,-2.4996 2.5,2.5 0 0 1 2.49959,-2.5001 z" />
    <rect
       style="fill:#a4abbd;fill-opacity:1;stroke-width:0.147056"
       id="rect3053-3-0-5-2-8-2"
       width="24.202917"
       height="5"
       x="52.974564"
       y="99.253082" />
    <path
       id="path855-6-7-3-2-93-4-8-6"
       style="fill:#0072c6;fill-opacity:1;stroke-width:0.206946"
       d="m 68.649577,74.25296 a 27.5,27.5 0 0 0 -27.50014,27.5001 27.5,27.5 0 0 0 27.50014,27.5001 27.5,27.5 0 0 0 10.037631,-1.898 l -1.83038,-4.6778 a 22.499999,22.499999 0 0 1 -8.207251,1.5756 22.499999,22.499999 0 0 1 -22.49991,-22.4999 22.499999,22.499999 0 0 1 22.49991,-22.4999 22.499999,22.499999 0 0 1 7.916311,1.4774 l 1.76423,-4.7118 a 27.5,27.5 0 0 0 -9.680541,-1.7658 z" />
    <path
       id="path855-5-6-7-7-8-4"
       style="fill:#404756;fill-opacity:1;stroke-width:0.131693"
       d="m 68.649577,84.25306 a 17.499999,17.499999 0 0 0 -17.50022,17.4997 17.499999,17.499999 0 0 0 17.50022,17.5003 17.499999,17.499999 0 0 0 6.392891,-1.2124 l -1.822111,-4.6576 a 12.499999,12.499999 0 0 1 -4.57078,0.8698 12.499999,12.499999 0 0 1 -12.50001,-12.5001 12.499999,12.499999 0 0 1 12.50001,-12.5 12.499999,12.499999 0 0 1 4.42143,0.8082 l 1.73788,-4.64 a 17.499999,17.499999 0 0 0 -6.15931,-1.1679 z" />
    <text
       xml:space="preserve"
       style="font-style:normal;font-weight:normal;font-size:28.2222px;line-height:1;font-family:sans-serif;letter-spacing:-0.79375px;fill:#404756;fill-opacity:1;stroke:none;stroke-width:0.264583"
       x="96.056953"
       y="110.1774"
       id="text53271-1-7-4-4-4-9"><tspan
         sodipodi:role="line"
         id="tspan53269-0-6-5-4-3-5"
         style="font-style:normal;font-variant:normal;font-weight:bold;font-stretch:normal;font-size:28.2222px;font-family:Cantarell;-inkscape-font-specification:'Cantarell Bold';fill:#404756;fill-opacity:1;stroke-width:0.264583"
         x="96.056953"
         y="110.1774"
         dx="0"
         dy="0">Cyber Connectors</tspan></text>
  </g>
</svg>
